# xmcd CD Database Entry
#
# Track frame offsets:
# 150
# 15381
# 48709
# 70130
# 88901
# 119492
# 142813
# 197517
# 219710
#
# Disc length: 3267 seconds
#
# Revision: 1
# Processed by: cddbd v1.4PL0 Copyright (c) Steve Scherf et al.
# Submitted via: tcd 2.0b
#
DISCID=800cc109
DTITLE=Buddy Guy - Sweet Tea
DYEAR=1900
DGENRE=
TTITLE0=Done Got Old
TTITLE1=Baby Please Don't Leave Me
TTITLE2=Look What All You Got
TTITLE3=Stay All Night
TTITLE4=Tramp
TTITLE5=She Got the Devil in Her
TTITLE6=I Gotta Try You Girl
TTITLE7=Who's Been Foolin' You
TTITLE8=It's a Jungle Out There
EXTD=
EXTT0=
EXTT1=
EXTT2=
EXTT3=
EXTT4=
EXTT5=
EXTT6=
EXTT7=
EXTT8=
PLAYORDER=
